<svg id="Capa_1" data-name="Capa 1" xmlns="http://www.w3.org/2000/svg" viewBox="0 0 80.82 217.74"><path d="M87.09,201.54c-3.91,5.83-9.13,9.19-10.44,13.4-2.11,6.82,5,6.49,9.45,5.43,4.63-1.11,6.84-3.87,9.38-4.6,6.22-1.8,6.38-5.49,3.86-14.23S90.25,196.07,87.09,201.54Z" transform="translate(-64.42 -3.23)" style="fill:#8599b4;fill-rule:evenodd"/><path d="M121.6,201.54c3.92,5.83,9.14,9.19,10.45,13.4,2.26,7.32-6.29,6.51-10.64,5.09-3.84-1.25-5.88-3.6-8.19-4.26-6.22-1.8-6.38-5.49-3.87-14.23S118.45,196.07,121.6,201.54Z" transform="translate(-64.42 -3.23)" style="fill:#8599b4;fill-rule:evenodd"/><path d="M83,126.15h44.08v80.26H108.75V148.13c0-5-7.46-5-7.46,0v58.28H83Z" transform="translate(-64.42 -3.23)" style="fill:#425156;fill-rule:evenodd"/><path d="M130.7,131.45h0a2,2,0,0,0-2,2v4.84a2,2,0,0,0,2,2h0a2,2,0,0,0,2-2v-4.84A2,2,0,0,0,130.7,131.45Z" transform="translate(-64.42 -3.23)" style="fill:#fbd9bd;fill-rule:evenodd"/><path d="M128.7,133.44l.05-2.67,16.06.13-.05,2.67C144.57,145.41,128.47,147.14,128.7,133.44Z" transform="translate(-64.42 -3.23)" style="fill:#fbd9bd;fill-rule:evenodd"/><path d="M128.75,130.77l.1-25.64a8.19,8.19,0,0,1,8.34-8.06h0a8.24,8.24,0,0,1,8.06,8.35l-.44,25.48Z" transform="translate(-64.42 -3.23)" style="fill:#e72c4f;fill-rule:evenodd"/><polygon points="80.39 127.66 80.44 124.18 64.34 124.04 64.32 127.53 80.39 127.66" style="fill:#cb1a3b;fill-rule:evenodd"/><path d="M92.19,73.12,80.37,106.51a8.23,8.23,0,0,1-10.47,5h0a8.24,8.24,0,0,1-5-10.47L76.72,67.65C80.15,58,95.44,63.92,92.19,73.12Z" transform="translate(-64.42 -3.23)" style="fill:#e72c4f;fill-rule:evenodd"/><path d="M79,131.45h0a2,2,0,0,1,2,2v4.84a2,2,0,0,1-2,2h0a2,2,0,0,1-2-2v-4.84A2,2,0,0,1,79,131.45Z" transform="translate(-64.42 -3.23)" style="fill:#fbd9bd;fill-rule:evenodd"/><path d="M81,133.44l0-2.67-16.06.13,0,2.67C65.1,145.41,81.2,147.14,81,133.44Z" transform="translate(-64.42 -3.23)" style="fill:#fbd9bd;fill-rule:evenodd"/><path d="M80.92,130.77l-.09-25.64a8.21,8.21,0,0,0-8.35-8.06h0a8.24,8.24,0,0,0-8.06,8.35l.44,25.48Z" transform="translate(-64.42 -3.23)" style="fill:#e72c4f;fill-rule:evenodd"/><polygon points="0.44 127.66 0.38 124.18 16.49 124.04 16.5 127.53 0.44 127.66" style="fill:#cb1a3b;fill-rule:evenodd"/><rect x="18.56" y="59.45" width="44.08" height="69.49" style="fill:#e72c4f"/><path d="M92.77,62.68h24.5v1.54A12.28,12.28,0,0,1,105,76.47h0A12.28,12.28,0,0,1,92.77,64.22Z" transform="translate(-64.42 -3.23)" style="fill:#cb1a3b;fill-rule:evenodd"/><path d="M105,29.93h0a10,10,0,0,1,10,10V62.69a10,10,0,0,1-10,10h0a10,10,0,0,1-10-10V39.88A10,10,0,0,1,105,29.93Z" transform="translate(-64.42 -3.23)" style="fill:#fbd9bd;fill-rule:evenodd"/><path d="M77.21,213.59a7.86,7.86,0,0,0-.56,1.35c-2.11,6.82,5,6.49,9.45,5.43,4.63-1.11,6.84-3.87,9.38-4.6,3.34-1,4.93-2.48,5.3-5-3.54,2.76-8.9,5-14.59,6.89A12.58,12.58,0,0,0,77.21,213.59Z" transform="translate(-64.42 -3.23)" style="fill:#a0b1c8;fill-rule:evenodd"/><path d="M84.8,206.24a4.69,4.69,0,0,1,.86.35h.08a8.81,8.81,0,0,1,4.76.74.52.52,0,0,1,.2.71.51.51,0,0,1-.7.2,6.67,6.67,0,0,0-3-.65,10,10,0,0,1,1.61,2.19.52.52,0,0,1-.58.85,7.58,7.58,0,0,0-2.76-.79A11.85,11.85,0,0,1,86.8,212a.52.52,0,0,1-.9.53,12.37,12.37,0,0,0-1.1-1.64v-2.12a10.75,10.75,0,0,1,2.13.33,6.34,6.34,0,0,0-1-1,3.39,3.39,0,0,0-.53-.38l-.63.08v-1.5Zm-5.14,4.47a.52.52,0,0,1-.73-.11.52.52,0,0,1,.12-.73,5.46,5.46,0,0,1,1.8-.76h0a.57.57,0,0,1-.4-.13.62.62,0,0,1-.14-.14.51.51,0,0,1,.11-.72A8.48,8.48,0,0,1,83,207.05l-.25,0a.52.52,0,1,1-.1-1,5.51,5.51,0,0,1,2.16.2v1.5a13.4,13.4,0,0,0-2.13.48,5,5,0,0,1,1.22.5l.91,0v2.13a4.58,4.58,0,0,0-.72-.74,5.9,5.9,0,0,0-.47-.37A8.1,8.1,0,0,0,79.66,210.71Z" transform="translate(-64.42 -3.23)" style="fill:#a0b1c8"/><path d="M131.48,213.59a7.86,7.86,0,0,1,.56,1.35c2.11,6.82-5,6.49-9.45,5.43-4.63-1.11-6.84-3.87-9.37-4.6-3.35-1-4.94-2.48-5.31-5,3.54,2.76,8.91,5,14.59,6.89A12.6,12.6,0,0,1,131.48,213.59Z" transform="translate(-64.42 -3.23)" style="fill:#a0b1c8;fill-rule:evenodd"/><path d="M129,210.71a.52.52,0,0,0,.62-.84,5.62,5.62,0,0,0-1.81-.76h0a.57.57,0,0,0,.4-.13.62.62,0,0,0,.14-.14.51.51,0,0,0-.11-.72,8.52,8.52,0,0,0-2.57-1.07l.25,0a.52.52,0,0,0,.56-.47.52.52,0,0,0-.47-.56,5.51,5.51,0,0,0-2.16.2v1.5a13.4,13.4,0,0,1,2.13.48,5.12,5.12,0,0,0-1.22.5l-.91,0v2.13a5.6,5.6,0,0,1,.72-.74c.15-.13.31-.25.48-.37A8.09,8.09,0,0,1,129,210.71Zm-5.14-4.47a4.69,4.69,0,0,0-.86.35H123a8.78,8.78,0,0,0-4.75.74.52.52,0,1,0,.5.91,6.59,6.59,0,0,1,3-.65,10.36,10.36,0,0,0-1.61,2.19.52.52,0,0,0,.58.85,7.58,7.58,0,0,1,2.76-.79,11.85,11.85,0,0,0-1.53,2.15.53.53,0,0,0,.19.71.52.52,0,0,0,.71-.18,12.37,12.37,0,0,1,1.1-1.64v-2.12a10.75,10.75,0,0,0-2.13.33,6.34,6.34,0,0,1,1-1,3.39,3.39,0,0,1,.53-.38l.63.08v-1.5Z" transform="translate(-64.42 -3.23)" style="fill:#a0b1c8"/><path d="M117.49,73.12l11.81,33.39a8.23,8.23,0,0,0,10.47,5h0a8.24,8.24,0,0,0,5-10.47L133,67.65C129.52,58,114.23,63.92,117.49,73.12Z" transform="translate(-64.42 -3.23)" style="fill:#e72c4f;fill-rule:evenodd"/><rect x="18.56" y="85.32" width="44.08" height="13.65" style="fill:#cb1a3b"/><path d="M115,45.14v15c-3.77,2.71-7.4,4.23-10,4.23s-6.19-1.52-10-4.23v-15C95.07,33,115,33,115,45.14Z" transform="translate(-64.42 -3.23)" style="fill:#f6c4a9;fill-rule:evenodd"/><ellipse cx="81.64" cy="32.02" rx="3.3" ry="5.7" transform="translate(-70.34 23.91) rotate(-18.23)" style="fill:#ffddcb"/><ellipse cx="128.64" cy="32.02" rx="5.7" ry="3.3" transform="translate(-6.44 140.96) rotate(-71.77)" style="fill:#ffddcb"/><path d="M93.77,44.4c3,2.17,20.21,2.05,23.25,0C114.37,55.82,97.28,56.17,93.77,44.4Z" transform="translate(-64.42 -3.23)" style="fill:#f6c4a9;fill-rule:evenodd"/><path d="M105,4.8c-32.95,0-21.1,39.82-19,43,2.37,3.49,13.63,12.76,19,12.76s16.58-9.27,19-12.76C126.13,44.62,138,4.8,105,4.8Z" transform="translate(-64.42 -3.23)" style="fill:#fbd9bd;fill-rule:evenodd"/><path d="M97.38,46.46c2.1,1.14,13.93,1.08,16,0C111.58,52.46,99.8,52.64,97.38,46.46Z" transform="translate(-64.42 -3.23)" style="fill:#fff;fill-rule:evenodd"/><path d="M139.29,35c-9.12-.43-11.84-4.56-12.54-15.31C125.5.8,91.15-1.22,86.34,10.52,75.65,20,83.51,45,83.51,38.62a32.2,32.2,0,0,1,4.8-16.57c3.49,7.26,11.32,13.82,19.56,13.11-5.64-4.74-8.77-6.78-10.09-14.41C101.83,32.25,120.44,39.49,139.29,35Z" transform="translate(-64.42 -3.23)" style="fill:#e19c26;fill-rule:evenodd"/><path d="M105,3.31c10.31.69,21,6,21.72,16.4v0a32.23,32.23,0,0,1,1,7l.15.53a2.71,2.71,0,0,1,2.51-.67c1.72.57,2.33,3.44,1.36,6.42,1.82,1.23,4.26,1.85,7.51,2a49.37,49.37,0,0,1-9.43,1.3A3.15,3.15,0,0,1,127,37.47c-.92,5.31-2.39,9.39-3,10.32-1.25,1.84-5,5.29-9,8.14v4.22h0v2.53H127v.07a7,7,0,0,1,5.89,4.9L144.74,101a8.06,8.06,0,0,1,.44,3.41,6.38,6.38,0,0,1,0,1l-.43,25.48h0l0,2.67c-.15,9.25-10,12.33-14.21,6.71a2,2,0,0,1-1.86-2v-4.89l0-2.62,0-3.5.08-22.06-1.78-5v26h0v80.26h-.56a.61.61,0,0,1,0,.19.51.51,0,0,1-.39.46l.15.16a6.9,6.9,0,0,1,2,.9.51.51,0,0,1,.11.72.47.47,0,0,1-.14.14.53.53,0,0,1-.21.11l.09.1a5,5,0,0,1,1.52.68.52.52,0,0,1,.11.73.46.46,0,0,1-.22.17,12.28,12.28,0,0,1,2.51,4.17,7.32,7.32,0,0,1,.38,2.22v.06a.61.61,0,0,1,0,.14,1.27,1.27,0,0,1,0,.2h0a3.27,3.27,0,0,1-2.3,2.93c-2.23.86-5.62.43-8.06-.27-4.26-1.19-6.39-3.76-8.83-4.46-3.34-1-4.93-2.47-5.31-5h0a18.91,18.91,0,0,1,.84-7V148.13a3.6,3.6,0,0,0-3.73-3.76V3.31Z" transform="translate(-64.42 -3.23)" style="fill-rule:evenodd;isolation:isolate;opacity:0.20000000298023224"/></svg>