<?xml version="1.0" encoding="iso-8859-1"?>
<!-- Generator: Adobe Illustrator 18.0.0, SVG Export Plug-In . SVG Version: 6.00 Build 0)  -->
<!DOCTYPE svg PUBLIC "-//W3C//DTD SVG 1.1//EN" "http://www.w3.org/Graphics/SVG/1.1/DTD/svg11.dtd">
<svg version="1.1" id="Capa_1" xmlns="http://www.w3.org/2000/svg" xmlns:xlink="http://www.w3.org/1999/xlink" x="0px" y="0px"
	 viewBox="0 0 212.924 212.924" style="enable-background:new 0 0 212.924 212.924;" xml:space="preserve">
<g>
	<g>
		<path style="fill-rule:evenodd;clip-rule:evenodd;fill:#A1400F;" d="M122.593,7.378c1.691-0.789,5.972,3.566,7.694,10.606
			c-5.188-3.09-0.924,0.068-0.754,9.828c0.183,10.484-1.73,13.961-4.877,17.906c-1.816-7.855-4.443,5.572-10.508,9.297
			c-6.089,3.74-10.359,3.225-15.66,0.234c-5.676-3.202-8.106-15.212-8.754-7.098c-5.755-6.213-7.202-12.64-7.156-20.679
			c0.052-9.112,7.266-14.515-0.783-8.993c3.848-8.779,8.672-12.919,13.17-15.416C103.038-1.42,114.34-1.766,122.593,7.378z"/>
		<path style="fill-rule:evenodd;clip-rule:evenodd;fill:#FBD9BD;" d="M93.524,198.845c-2.93,4.24-6.83,6.68-7.805,9.738
			c-0.551,1.729-0.142,3.916,1.615,4.134c7.563,0.935,9.76-2.78,12.451-3.534c4.655-1.307,4.774-3.982,2.892-10.338
			C100.794,192.49,95.88,194.879,93.524,198.845z"/>
		<path style="fill-rule:evenodd;clip-rule:evenodd;fill:#FBD9BD;" d="M89.108,118.265h34.6l-4.415,80.58h-9.154l-1.862-61.287
			c-0.146-4.859-3.588-4.889-3.736,0l-1.862,61.287h-9.153L89.108,118.265z"/>
		<path style="fill-rule:evenodd;clip-rule:evenodd;fill:#FBD9BD;" d="M118.146,68.128l9.278,34.159
			c1.108,4.083,9.719,0.062,9.079-3.749l-5.612-33.42C128.755,55.273,115.639,58.898,118.146,68.128z"/>
		<path style="fill-rule:evenodd;clip-rule:evenodd;fill:#E2687F;" d="M134.008,78.308l-1.565-12.153
			c-0.955-7.418-8.852-8.541-11.987-4.835l0.791,12.937l1.614,6.457L134.008,78.308z"/>
		<path style="fill-rule:evenodd;clip-rule:evenodd;fill:#FBD9BD;" d="M94.778,68.128L85.5,102.287
			c-1.109,4.083-9.721,0.062-9.08-3.749l5.611-33.42C84.168,55.273,97.285,58.898,94.778,68.128z"/>
		<path style="fill-rule:evenodd;clip-rule:evenodd;fill:#E2687F;" d="M78.915,78.308l1.565-12.153
			c0.955-7.418,8.852-8.541,11.987-4.835l-0.791,12.937l-1.614,6.457L78.915,78.308z"/>
		<path style="fill-rule:evenodd;clip-rule:evenodd;fill:#FBD9BD;" d="M86.916,122.972L86.916,122.972
			c0.335-0.225,0.752,0.227,0.781,0.622l0.437,5.84c0.029,0.395-0.35,0.591-0.684,0.816H87.45c-0.334,0.225-0.751-0.227-0.78-0.622
			l-0.437-5.84C86.203,123.394,86.514,123.027,86.916,122.972z"/>
		<path style="fill-rule:evenodd;clip-rule:evenodd;fill:#FBD9BD;" d="M87.713,125.47l-0.191-2.511l-8.297,1.193l0.191,2.511
			C80.219,134.224,88.655,134.651,87.713,125.47z"/>
		<path style="fill-rule:evenodd;clip-rule:evenodd;fill:#FBD9BD;" d="M87.614,123.698l-1.793-24.122
			c-1.549-6.392-9.062-5.878-9.397-0.193l2.968,25.474L87.614,123.698z"/>
		<polygon style="fill-rule:evenodd;clip-rule:evenodd;fill:#FF93A7;" points="127.003,59.265 123.706,118.265 106.125,118.265 
			89.108,118.265 85.813,59.265 		"/>
		<path style="fill-rule:evenodd;clip-rule:evenodd;fill:#FBD9BD;" d="M114.397,38.82v19.573c-4.395,5.775-11.584,5.575-15.977,0
			V38.82C98.42,28.252,114.397,28.252,114.397,38.82z"/>
		<polygon style="fill-rule:evenodd;clip-rule:evenodd;fill:#4E6078;" points="88.375,105.14 90.389,141.644 122.335,141.644 
			124.436,105.215 		"/>
		<path style="fill-rule:evenodd;clip-rule:evenodd;fill:#FBD9BD;" d="M119.313,198.845c2.928,4.24,6.83,6.68,7.804,9.738
			c0.551,1.729,0.142,3.916-1.615,4.134c-7.563,0.935-9.759-2.78-12.452-3.534c-4.654-1.307-4.773-3.982-2.891-10.338
			C112.041,192.49,116.956,194.879,119.313,198.845z"/>
		<path style="fill-rule:evenodd;clip-rule:evenodd;fill:#E2687F;" d="M88.175,204.913c-1.139,1.232-2.05,2.398-2.456,3.671
			c-1.381,4.332,2.254,4.538,5.468,4.207c4.585-0.473,6.432-3,8.599-3.607c4.183-1.174,4.703-3.453,3.4-8.512
			c-0.179,4.412-7.146,7.26-8.891,7.787C92.551,208.985,88.504,206.632,88.175,204.913z"/>
		<path style="fill-rule:evenodd;clip-rule:evenodd;fill:#E2687F;" d="M124.664,204.913c1.138,1.232,2.05,2.398,2.455,3.671
			c1.474,4.623-2.919,4.637-6.204,4.109c-4.053-0.649-5.814-2.936-7.862-3.51c-4.182-1.174-4.703-3.453-3.4-8.512
			c0.179,4.412,7.175,7.658,8.994,7.787C120.466,208.588,125.261,205.449,124.664,204.913z"/>
		<polygon style="fill-rule:evenodd;clip-rule:evenodd;fill:#FF93A7;" points="95.875,59.265 106.408,68.81 116.362,59.135 
			126.039,76.529 86.741,75.881 		"/>
		<polygon style="fill-rule:evenodd;clip-rule:evenodd;fill:#E2687F;" points="110.24,61.512 106.408,68.81 119.025,59.265 
			116.362,56.336 		"/>
		<polygon style="fill-rule:evenodd;clip-rule:evenodd;fill:#E2687F;" points="102.577,61.512 106.408,68.81 93.791,59.265 
			96.454,56.336 		"/>
		<path style="fill-rule:evenodd;clip-rule:evenodd;fill:#FFFFFF;" d="M96.454,56.336l-2.662,2.93l2.547,11.026l6.238-8.779
			L96.454,56.336L96.454,56.336z M116.362,56.336l2.663,2.93l-2.548,11.026l-6.237-8.779L116.362,56.336z"/>
		<path style="fill:#E2687F;" d="M96.406,207.793c-0.022-0.138-0.072-0.291-0.146-0.457c-0.425-0.965-1.521-2.043-2.827-2.852
			c-1.255-0.775-2.92-1.27-4.035-1.122c0.577-0.595,1.178-1.22,1.773-1.888c1.062,0.229,2.399,0.697,3.378,1.301
			c1.633,1.01,3.035,2.434,3.624,3.77c0.135,0.307,0.231,0.619,0.283,0.931L96.406,207.793z"/>
		<path style="fill:#E2687F;" d="M116.527,207.793c0.022-0.138,0.072-0.291,0.146-0.457c0.426-0.965,1.521-2.043,2.827-2.852
			c1.256-0.775,2.92-1.27,4.034-1.122c-0.576-0.595-1.176-1.22-1.773-1.888c-1.061,0.229-2.399,0.697-3.376,1.301
			c-1.634,1.01-3.036,2.434-3.625,3.77c-0.135,0.307-0.232,0.619-0.284,0.931L116.527,207.793z"/>
		<path style="fill-rule:evenodd;clip-rule:evenodd;fill:#FBD9BD;" d="M126.007,122.972L126.007,122.972
			c-0.334-0.225-0.752,0.227-0.781,0.622l-0.437,5.84c-0.029,0.395,0.35,0.591,0.684,0.816l0,0c0.335,0.225,0.752-0.227,0.781-0.622
			l0.438-5.84C126.721,123.394,126.41,123.027,126.007,122.972z"/>
		<path style="fill-rule:evenodd;clip-rule:evenodd;fill:#FBD9BD;" d="M125.21,125.47l0.19-2.511l8.298,1.193l-0.191,2.511
			C132.704,134.224,124.269,134.651,125.21,125.47z"/>
		<path style="fill-rule:evenodd;clip-rule:evenodd;fill:#FBD9BD;" d="M125.31,123.698l1.793-24.122
			c1.549-6.392,9.062-5.878,9.397-0.193l-2.968,25.474L125.31,123.698z"/>
		<path style="fill-rule:evenodd;clip-rule:evenodd;fill:#ECC2A0;" d="M114.397,38.82v13.104c-3.023,2.364-5.937,3.691-7.988,3.691
			c-2.052,0-4.966-1.326-7.988-3.689V38.82C98.42,28.252,114.397,28.252,114.397,38.82z"/>
		<path style="fill-rule:evenodd;clip-rule:evenodd;fill:#FBD9BD;" d="M106.409,52.359c-5.202,0-16.189-8.178-19.586-19.889
			c-3.431-11.826,3.029-28.789,19.586-28.789c16.557,0,23.016,16.961,19.586,28.789C122.597,44.182,111.61,52.359,106.409,52.359z"
			/>
		<path style="fill-rule:evenodd;clip-rule:evenodd;fill:#FF386A;" d="M98.117,40.365c3.508-2.566,7.169-1.048,8.393-1.048
			c1.224,0,4.684-1.518,8.19,1.048C112.955,47.42,100.758,47.597,98.117,40.365z"/>
		<path style="fill-rule:evenodd;clip-rule:evenodd;fill:#A21F40;" d="M98.221,40.328c3.257-1.148,6.136,1.101,8.184,1.101
			c2.049,0,4.934-3.021,8.19-0.985C110.78,44.332,102.063,44.121,98.221,40.328z"/>
		<path style="fill-rule:evenodd;clip-rule:evenodd;fill:#FFFFFF;" d="M98.117,40.328c3.508-1.446,6.089-0.397,8.137-0.397
			c2.049,0,4.938-1.049,8.446,0.397C110.884,42.506,101.957,42.433,98.117,40.328z"/>
		<path style="fill-rule:evenodd;clip-rule:evenodd;fill:#FF386A;" d="M98.133,40.342c3.492-2.533,6.49-0.775,8.535-0.775
			c2.045,0,4.507-1.767,8.015,0.799c-0.013,0.035-0.026,0.07-0.04,0.105C110.17,40.39,102.852,40.345,98.133,40.342z"/>
		
			<ellipse transform="matrix(-0.3947 -0.9188 0.9188 -0.3947 88.512 123.0821)" style="fill-rule:evenodd;clip-rule:evenodd;fill:#FBD9BD;" cx="84.8" cy="32.385" rx="5.701" ry="3.297"/>
		
			<ellipse transform="matrix(0.3947 -0.9188 0.9188 0.3947 46.8008 135.8067)" style="fill-rule:evenodd;clip-rule:evenodd;fill:#FBD9BD;" cx="126.469" cy="32.385" rx="5.701" ry="3.297"/>
		<path style="fill-rule:evenodd;clip-rule:evenodd;fill:#A1400F;" d="M124.327,34.385c0,0-1.433-13.352-4.677-17.814
			c-2.813,4.15-10.237,6.426-18.334,5.255c13.903-6.559-3.461,0.796-6.693-2.245c-3.08,1.629-4.597,9.996-6.072,15.041
			c-5.175-9.006-2.987-19.854,0.582-24.988c6.888-9.904,21.642-12.099,31.718-3.091C127.842,12.792,130.08,26.281,124.327,34.385z"
			/>
		<g style="opacity:0.2;">
			<path style="fill-rule:evenodd;clip-rule:evenodd;" d="M126.981,59.265l-0.012,0.225c2.596,0.666,4.957,2.818,5.452,6.665
				l1.564,12.153l-0.869,0.188l3.365,20.042c0.047,0.28,0.042,0.561-0.004,0.839l0.001,0.006l-2.885,24.758l0.082,0.012
				l-0.191,2.511c-0.62,5.841-5.792,7.422-7.683,3.61c-0.113,0.053-0.237,0.055-0.352-0.023l0,0
				c-0.334-0.226-0.713-0.421-0.683-0.816l0.436-5.84c0.009-0.118,0.052-0.241,0.117-0.35l1.671-22.468l-1.933-7.113l-1.374,24.602
				h-0.001l-4.412,80.55l0.018,0.03c0.682,0.986,1.416,1.875,2.153,2.697c0.101-0.023,0.199-0.047,0.295-0.068
				c0.597,0.668,1.197,1.293,1.773,1.888c-0.12-0.017-0.248-0.024-0.381-0.026c0.538,0.557,1.058,1.088,1.536,1.607
				c-0.008-0.011-0.016-0.021-0.025-0.03c1.138,1.232,2.05,2.398,2.455,3.671c0.487,1.527,0.333,2.552-0.21,3.22
				c-0.301,0.489-0.764,0.834-1.408,0.914c-0.1,0.012-0.199,0.023-0.298,0.034c-1.232,0.286-2.792,0.174-4.173-0.04l-0.113-0.018
				l-0.001-0.001h-0.004c-4.052-0.65-5.814-2.936-7.862-3.51c-4.654-1.307-4.773-3.982-2.892-10.338h-0.02l-1.738-57.201h-2.167
				V0.004c5.658-0.076,11.531,2.023,16.36,7.374c1.691-0.789,5.972,3.567,7.693,10.606c-5.183-3.087-0.932,0.063-0.754,9.803
				c0.935,1.198,0.971,3.56-0.034,5.899c-0.053,0.123-0.107,0.242-0.163,0.361c-0.568,5.881-2.259,8.639-4.679,11.672
				c-1.791-7.747-4.371,5.207-10.26,9.137v3.141l1.964-1.66l2.663,2.93h5.17c0.17-0.006,0.34-0.006,0.51,0h0.349
				c0.111-0.002,0.223-0.003,0.334,0H126.981L126.981,59.265z M123.685,118.265h-0.023H123.685z"/>
		</g>
	</g>
</g>
<g>
</g>
<g>
</g>
<g>
</g>
<g>
</g>
<g>
</g>
<g>
</g>
<g>
</g>
<g>
</g>
<g>
</g>
<g>
</g>
<g>
</g>
<g>
</g>
<g>
</g>
<g>
</g>
<g>
</g>
</svg>
